<?xml version="1.0" encoding="UTF-8"?>
<svg width="2464px" height="679px" viewBox="0 0 2464 679" version="1.1" xmlns="http://www.w3.org/2000/svg" xmlns:xlink="http://www.w3.org/1999/xlink">
    <!-- Generator: Sketch 45 (43475) - http://www.bohemiancoding.com/sketch -->
    <title>for-the-culture-transparent</title>
    <desc>Created with Sketch.</desc>
    <defs></defs>
    <g id="Page-1" stroke="none" stroke-width="1" fill="none" fill-rule="evenodd">
        <g id="for-the-culture-transparent" fill-rule="nonzero" fill="#FFFFFF">
            <g id="Group" transform="translate(1232.000000, 339.500000) scale(-1, 1) rotate(-180.000000) translate(-1232.000000, -339.500000) translate(0.000000, 0.000000)">
                <path d="M978,677.9 C975.5,677.4 969.7,675.2 965,672.9 C942.9,662 928.5,636.1 930.3,610.5 C931.6,592.7 937.5,579.5 949.5,567.4 C961.4,555.3 973.8,550 990,550 C1028.9,550 1057.2,588.4 1048.5,629.4 C1047.7,633.2 1045.2,640.1 1042.9,644.8 C1039.7,651.5 1037.1,655 1030.7,661.4 C1021.6,670.5 1013.9,675.1 1003.9,677.5 C997,679.1 985.2,679.3 978,677.9 Z M1007.1,659.3 C1022.3,651.8 1033,633.4 1033,614.5 C1033,596.1 1022.7,577.9 1008,570.1 C982.9,556.7 954,573.8 948.4,605.3 C944.9,624.7 953.1,646.1 967.8,656.2 C975.4,661.5 981.2,663.1 991.5,662.8 C999.4,662.5 1001.4,662.1 1007.1,659.3 Z" id="Shape"></path>
                <polygon id="Shape" points="819 614.5 819 551 827.5 551 836 551 836 579 836 607 864.5 607 893 607 893 614.5 893 622 864.5 622 836 622 836 642.5 836 663 870 663 904 663 904 670.5 904 678 861.5 678 819 678"></polygon>
                <path d="M1089,614.6 L1089,551 L1097.5,551 L1106,551 L1106,573.5 L1106,596 L1122.4,596 L1138.9,596 L1153.1,573.5 L1167.4,551 L1177.3,551 L1187.2,551 L1185.8,553.3 C1175.4,569.4 1156.9,599.2 1157.1,599.4 C1157.3,599.5 1159.5,600.5 1161.9,601.5 C1175.7,607.5 1184.8,626.3 1182.1,643.1 C1179.9,656.8 1170.7,669.4 1159.2,674.8 L1153.5,677.5 L1121.3,677.8 L1089,678.1 L1089,614.6 Z M1149.8,661.4 C1155,659.3 1159.8,654.4 1162.6,648.5 C1168.2,636.8 1164,621 1153.6,614.5 L1148.7,611.5 L1127.3,611.2 L1106,610.8 L1106,636.9 L1106,663 L1126,663 C1141.9,663 1146.8,662.7 1149.8,661.4 Z" id="Shape"></path>
                <polygon id="Shape" points="1269 670.5 1269 663 1291 663 1313 663 1313 607 1313 551 1321.5 551 1330 551 1330 607 1330 663 1352 663 1374 663 1374 670.5 1374 678 1321.5 678 1269 678"></polygon>
                <polygon id="Shape" points="1408 614.5 1408 551 1416.5 551 1425 551 1425 579.5 1425 608 1459.5 608 1494 608 1494 579.5 1494 551 1502.5 551 1511 551 1511 614.5 1511 678 1502.5 678 1494 678 1494 651 1494 624 1459.5 624 1425 624 1425 651 1425 678 1416.5 678 1408 678"></polygon>
                <polygon id="Shape" points="1558 614.5 1558 551 1601.5 551 1645 551 1645 558.5 1645 566 1610 566 1575 566 1575 587.5 1575 609 1604.5 609 1634 609 1634 616 1634 623 1604.5 623 1575 623 1575 643 1575 663 1609 663 1643 663 1643 670.5 1643 678 1600.5 678 1558 678"></polygon>
                <polygon id="Shape" points="0 310 0 0 1232 0 2464 0 2464 310 2464 620 2069.5 620 1675 620 1675 613 1675 606 2062.5 606 2450 606 2450 310.5 2450 15 1232 15 14 15 14 310.5 14 606 400 606 786 606 786 613 786 620 393 620 0 620"></polygon>
                <path d="M259,421 C197.3,413.4 149.6,369.4 136.3,307.9 C133.7,295.9 133.8,264 136.4,252 C140.7,232.2 149.3,212.7 160.7,196.9 C168.2,186.4 185.4,169.9 196.1,162.7 C210.8,153 227.3,145.9 245,141.8 C256.1,139.3 282.5,138.3 294.1,139.9 C323.5,144.1 349.9,156.4 370.9,175.7 L375.5,179.9 L325.6,229.9 L275.7,279.9 L325.3,330.2 L375,380.5 L368.8,386.4 C357.3,397.4 337.9,408.6 320.6,414.4 C302.6,420.4 276.8,423.1 259,421 Z M284.7,405 C307.3,403 325.1,396.9 343.8,384.8 L352,379.4 L308,335.5 L264,291.5 L225.4,330 L186.9,368.5 L193.4,374.5 C210.8,390.6 238.7,402.6 263.5,404.9 C268.5,405.4 272.7,405.8 273,405.9 C273.3,405.9 278.5,405.5 284.7,405 Z M264,268.5 L351.5,180.9 L349,179 C347.6,178 343,175 338.7,172.4 C307.8,154.1 270.4,150.1 235.5,161.6 C193.6,175.4 161.9,211.4 152.3,256 C149.8,267.8 149.8,293.1 152.4,305 C154.5,314.7 159.1,328.2 162.7,335.5 C166,341.9 175,356 175.8,356 C176.2,356 215.9,316.6 264,268.5 Z" id="Shape"></path>
                <path d="M495.2,323.3 L495.5,230.5 L498.2,220.8 C508.8,182 538.6,152.3 576.8,142.3 C588.7,139.2 608.6,138.1 621.2,139.9 C644.8,143.3 666.7,154.7 684.1,172.7 C700.8,190 710.9,211.2 713.9,235.5 C714.6,241.4 715,273.9 715,330.3 L715,416.1 L706.7,415.8 L698.4,415.5 L607,319 C556.7,265.9 515.3,222.6 515,222.7 C514.8,222.8 513.9,225 513.1,227.7 C511.8,231.7 511.6,247.3 511.3,324.3 L510.9,416 L502.9,416 L494.9,416 L495.2,323.3 Z M698.7,307 C698.4,246.7 698.1,235.6 696.7,230 C687.8,193.7 664.6,169.1 629.5,158.4 C621.3,155.9 619,155.7 605,155.7 C592.2,155.7 588.1,156.1 581.5,157.8 C557.6,164.3 535.9,180.5 524.5,200.3 L521.8,205 L529.1,213 C533.2,217.4 573,259.4 617.5,306.3 L698.5,391.5 L698.8,384.5 C699,380.7 698.9,345.8 698.7,307 Z" id="Shape"></path>
                <path d="M862,280.5 L862,145 L957.5,145 L1053.1,145 L1052.8,153.3 L1052.5,161.6 L965.3,253.8 L878,345.9 L878,381 L878,416 L870,416 L862,416 L862,280.5 Z M950.2,245.8 C989.4,204.4 1023.5,168.4 1025.9,165.8 L1030.3,161 L954.1,161 L878,161 L878,241 C878,285 878.2,321 878.4,321 C878.6,321 910.9,287.1 950.2,245.8 Z" id="Shape"></path>
                <polygon id="Shape" points="1093 407.5 1093 399 1138.5 399 1184 399 1184 272 1184 145 1192 145 1200 145 1200 280.5 1200 416 1146.5 416 1093 416"></polygon>
                <polygon id="Shape" points="1214 280.5 1214 145 1222.5 145 1231 145 1231 272 1231 399 1276.5 399 1322 399 1322 407.5 1322 416 1268 416 1214 416"></polygon>
                <path d="M1437.2,323.3 L1437.5,230.5 L1440.2,220.8 C1450.8,182.1 1480.7,152.2 1518.5,142.4 C1530.7,139.2 1550.5,138.1 1563.2,139.9 C1605,145.9 1640.4,177 1652.4,218.1 C1656.7,233.2 1657,239.7 1657,330.3 L1657,416.1 L1648.7,415.8 L1640.4,415.5 L1548.7,318.7 C1498.2,265.5 1456.8,222.5 1456.5,223.2 C1456.3,223.9 1455.5,226.3 1454.8,228.5 C1453.9,231.6 1453.5,253.5 1453.2,324.3 L1452.9,416 L1444.9,416 L1436.9,416 L1437.2,323.3 Z M1640.7,308.5 C1640.3,231.8 1640.3,232.7 1635.2,218 C1628.6,199 1614.9,181.6 1597.5,170.2 C1570.9,152.7 1535.8,150.3 1507.3,163.9 C1496.1,169.3 1487.8,175.1 1479.9,183.1 C1472.8,190.3 1463.6,203.3 1464.2,205.1 C1464.4,205.8 1504.2,248 1552.5,298.9 L1640.5,391.6 L1640.8,386 C1641,383 1640.9,348.1 1640.7,308.5 Z" id="Shape"></path>
                <path d="M1804.2,414.8 C1804.5,414.1 1828.5,378.6 1857.4,336 L1910.1,258.5 L1857.1,258.2 L1804,258 L1804,201.5 L1804,145 L1812,145 L1820,145 L1820,193.5 L1820,242 L1870.8,242 L1921.5,241.9 L1954.1,193.7 L1986.7,145.5 L1996.5,145.2 C2004.4,145 2006.1,145.2 2005.7,146.3 C2005.4,147 1990.8,168.9 1973.1,194.9 C1955.4,220.8 1941,242.4 1941,242.8 C1941,243.2 1944,244.3 1947.8,245.3 C1971.7,251.5 1994.1,271.5 2003.6,294.8 C2008.5,307 2009.5,312.6 2009.5,328.5 C2009.5,344 2008.7,348.7 2004.1,361.1 C1995,385.4 1971.8,405.6 1944.5,413.2 C1936.7,415.4 1935,415.4 1870.1,415.8 C1815.7,416.1 1803.8,415.9 1804.2,414.8 Z M1940.4,397 C1952.7,393.9 1963.2,387.8 1972.5,378.5 C1981.6,369.4 1986.9,361 1990.7,349.5 C1993,342.5 1993.4,339.9 1993.4,328.5 C1993.4,317.2 1993,314.5 1990.8,307.8 C1986.8,295.7 1981.6,287.4 1972.5,278.3 C1965.8,271.7 1962.5,269.3 1954.9,265.6 C1943.5,260.1 1931.5,257 1929.5,259.1 C1928.4,260.3 1842.1,387.5 1836.5,396.3 L1834.8,399 L1883.7,399 C1929.1,399 1933.2,398.9 1940.4,397 Z" id="Shape"></path>
                <path d="M2143,280.5 L2143,145 L2236.5,145 L2330,145 L2330,153 L2330,161 L2250.7,161.2 L2171.3,161.5 L2227.2,220.5 C2257.9,253 2283,279.8 2283,280.2 C2283,280.6 2258,307.4 2227.4,339.7 L2171.7,398.5 L2250.9,398.8 L2330,399 L2330,407.5 L2330,416 L2236.5,416 L2143,416 L2143,280.5 Z M2255.8,285.9 L2261.2,280.2 L2214.5,230.9 C2188.8,203.7 2165.8,179.5 2163.4,177 L2159,172.5 L2159,280.3 L2159,388 L2204.7,339.7 C2229.8,313.2 2252.8,289 2255.8,285.9 Z" id="Shape"></path>
            </g>
        </g>
    </g>
</svg>